<svg width="41" height="50" viewBox="0 0 41 50" fill="none" xmlns="http://www.w3.org/2000/svg">
<path d="M32.5149 49.9922C32.0303 49.9922 31.5667 49.9748 31.1051 49.9981C30.7825 50.0144 30.5328 49.9234 30.2777 49.722C29.4002 49.0289 28.5031 48.361 27.6134 47.6839C27.5912 47.6671 27.5678 47.6516 27.5369 47.63C27.1846 47.8482 26.8318 48.0668 26.4786 48.2857C25.6357 48.8087 24.7941 49.3325 23.9536 49.8571C23.8592 49.9164 23.7949 49.9203 23.6954 49.8571C22.8085 49.2991 21.9164 48.7496 21.0264 48.1964C20.7766 48.041 20.5232 47.8901 20.2844 47.7188C20.1439 47.6176 20.0388 47.6345 19.9003 47.7213C19.1856 48.1745 18.4646 48.6178 17.7459 49.0648C17.3169 49.3317 16.8873 49.5969 16.4606 49.8672C16.3802 49.9184 16.3218 49.9234 16.2358 49.8672C15.0625 49.1334 13.8877 48.4017 12.7112 47.6721C12.639 47.6269 12.5859 47.621 12.5098 47.6685C11.3298 48.4034 10.1498 49.1336 8.97201 49.8703C8.88772 49.922 8.83827 49.9144 8.76298 49.8675C7.60432 49.1452 6.44285 48.4268 5.28532 47.7042C5.17687 47.6364 5.10607 47.6241 4.99313 47.7072C3.99555 48.4428 2.99348 49.1725 1.98691 49.8964C1.90398 49.9531 1.80639 49.9846 1.70596 49.9869C1.14405 49.9953 0.582138 49.9911 0 49.9911V49.8366C0 48.8207 0 47.8047 0 46.7888C0 40.6005 0 25.2817 0 19.0934C0.00131112 14.5687 0.00355876 10.0433 0.00674291 5.51711C0.0103953 3.93533 0.612481 2.59518 1.76271 1.51013C2.83118 0.502909 4.10981 0.00280955 5.57808 0.00224764C10.855 0 16.132 -0.000561909 21.4093 0.000561909C26.0344 0.000561909 30.6595 0.000561909 35.2845 0.000561909C36.6593 0.000561909 37.8755 0.443908 38.9159 1.33538C39.9681 2.23668 40.6041 3.38185 40.8042 4.75825C40.8416 5.0173 40.8604 5.27869 40.8604 5.54043C40.8643 9.2067 40.8652 12.8729 40.8632 16.539V16.7182H32.5149V49.9922ZM30.4561 2.78707H18.6666C14.3124 2.78707 9.95807 2.78819 5.60364 2.79044C5.37479 2.78995 5.14664 2.81588 4.92373 2.86771C3.65775 3.17001 2.78848 4.27894 2.78848 5.58398C2.78735 9.29595 2.78735 13.0079 2.78848 16.7199C2.78848 23.3117 2.78848 39.0333 2.78679 45.6248V45.779C2.87108 45.7296 2.93401 45.6934 2.99638 45.6546C3.67067 45.2354 4.34834 44.8173 5.0215 44.3939C5.10579 44.3406 5.16479 44.3453 5.24627 44.3965C6.41223 45.1247 7.581 45.8484 8.74668 46.5778C8.83322 46.632 8.89362 46.6399 8.98297 46.5843C10.1447 45.858 11.3098 45.1371 12.4707 44.4094C12.573 44.3453 12.6413 44.3439 12.7435 44.4077C13.9011 45.1317 15.0631 45.8484 16.2198 46.5736C16.3209 46.6371 16.3861 46.6284 16.4786 46.5705C17.6327 45.8498 18.79 45.134 19.9436 44.4119C20.0436 44.3493 20.1121 44.3417 20.2169 44.4071C21.3812 45.1357 22.5489 45.8583 23.7154 46.5848C23.7913 46.632 23.8458 46.6385 23.9267 46.5879C25.1008 45.8543 26.2788 45.127 27.4515 44.3917C27.558 44.3248 27.6246 44.3333 27.7221 44.3973C28.3402 44.8036 28.9603 45.2039 29.5803 45.6054C29.6202 45.6313 29.6621 45.654 29.7163 45.6858C29.7186 45.6408 29.7205 45.6228 29.7205 45.6046C29.7205 43.8439 29.7205 42.0833 29.7205 40.3226C29.7205 31.6973 29.7205 13.9438 29.7174 5.31932C29.7174 4.75741 29.7736 4.2073 30.0082 3.68978C30.147 3.39169 30.3013 3.09977 30.4561 2.78707ZM38.0772 13.923V13.7926C38.0772 11.0443 38.0763 8.29584 38.0744 5.54717C38.0729 5.35554 38.052 5.16454 38.0121 4.97711C37.7078 3.51615 36.2457 2.55051 34.7794 2.8354C33.4454 3.09472 32.5129 4.22472 32.5124 5.58538C32.5124 7.25594 32.5124 8.92631 32.5124 10.5965V13.923H38.0772ZM7.43378 38.8501V41.6403H25.069V38.8501H7.43378ZM7.43378 34.2144V36.9857H19.5014V34.2144H7.43378ZM13.5358 20.4633L13.5336 21.9305H13.9185L19.5696 21.9392C20.1596 21.9392 20.2102 21.9931 20.2096 22.5949C20.2096 22.9863 20.2096 23.3777 20.2074 23.7691C20.2046 24.2425 20.0975 24.3523 19.6283 24.352C17.7444 24.3507 15.8607 24.348 13.9772 24.3439H13.5195C13.5195 24.9645 13.5134 25.5708 13.5176 26.1768C13.5243 27.1321 13.5271 27.1321 12.5696 27.1321C12.1294 27.1321 11.6888 27.1321 11.2491 27.1298C10.746 27.1276 10.6454 27.0284 10.6445 26.5367C10.6434 25.8396 10.6424 25.1425 10.6414 24.4453C10.6414 24.4237 10.6251 24.402 10.5996 24.3397L8.16876 24.336C7.52425 24.336 7.43519 24.2444 7.43603 23.5954C7.43603 23.2409 7.43603 22.886 7.438 22.5314C7.43996 22.0344 7.54729 21.9235 8.03446 21.9229C8.7686 21.9229 9.50245 21.9246 10.2363 21.9257H10.6251L10.6274 20.4586C9.76318 20.4586 8.91048 20.4569 8.05778 20.4541C7.54335 20.4524 7.44221 20.3496 7.44221 19.8332C7.44221 19.3317 7.43996 18.8299 7.44558 18.3286C7.4498 17.9353 7.58184 17.8038 7.97574 17.8027C8.72196 17.8005 9.46874 17.7858 10.2141 17.8131C10.5614 17.8257 10.669 17.7339 10.667 17.3737C10.6546 14.9763 10.667 12.5786 10.6701 10.1812C10.6701 9.62888 10.7462 9.55387 11.3087 9.55443C13.4861 9.55724 15.6635 9.54488 17.8406 9.56904C19.9655 9.59264 21.7355 10.3726 22.7646 12.3027C24.4566 15.4775 22.9804 19.9101 18.6975 20.3833C17.3315 20.5341 15.9388 20.4451 14.5585 20.4639C14.2298 20.4684 13.9016 20.4639 13.5358 20.4633ZM13.5474 17.7774C13.6035 17.7915 13.6387 17.8072 13.6729 17.8075C15.0173 17.8114 16.3634 17.855 17.7052 17.7957C18.2194 17.7732 18.7728 17.6027 19.2224 17.3484C20.2861 16.7472 20.7024 15.4531 20.3515 14.1455C20.0706 13.1023 19.0246 12.2847 17.8777 12.2485C17.0629 12.2227 16.2448 12.2353 15.4281 12.2325C14.81 12.2302 14.1919 12.2302 13.5561 12.2294L13.5474 17.7774Z" fill="url(#paint0_linear)"/>
<defs>
<linearGradient id="paint0_linear" x1="-7.37827" y1="28.3784" x2="50.7398" y2="28.3784" gradientUnits="userSpaceOnUse">
<stop offset="0.0810811" stop-color="#B58840"/>
<stop offset="0.494792" stop-color="#F2E996"/>
<stop offset="1" stop-color="#B58840"/>
</linearGradient>
</defs>
</svg>
