<svg width="42" height="42" viewBox="0 0 42 42" fill="none" xmlns="http://www.w3.org/2000/svg">
<circle cx="21" cy="21" r="21" fill="white"/>
<mask id="path-2-outside-1" maskUnits="userSpaceOnUse" x="9" y="8" width="26" height="26" fill="black">
<rect fill="white" x="9" y="8" width="26" height="26"/>
<path fill-rule="evenodd" clip-rule="evenodd" d="M33.9999 9.43636L33.5635 9L22 20.5635L10.4365 9.00003L10.0001 9.43639L21.5636 20.9999L10 32.5635L10.4364 32.9999L22 21.4362L33.5636 32.9999L34 32.5635L22.4363 20.9999L33.9999 9.43636Z"/>
</mask>
<path fill-rule="evenodd" clip-rule="evenodd" d="M33.9999 9.43636L33.5635 9L22 20.5635L10.4365 9.00003L10.0001 9.43639L21.5636 20.9999L10 32.5635L10.4364 32.9999L22 21.4362L33.5636 32.9999L34 32.5635L22.4363 20.9999L33.9999 9.43636Z" fill="#D4B464"/>
<path d="M33.5635 9L33.917 8.64645L33.5635 8.29289L33.2099 8.64645L33.5635 9ZM33.9999 9.43636L34.3534 9.78991L34.707 9.43636L34.3534 9.08281L33.9999 9.43636ZM22 20.5635L21.6464 20.9171L22 21.2706L22.3535 20.9171L22 20.5635ZM10.4365 9.00003L10.79 8.64648L10.4365 8.29292L10.0829 8.64648L10.4365 9.00003ZM10.0001 9.43639L9.64655 9.08284L9.293 9.43639L9.64655 9.78994L10.0001 9.43639ZM21.5636 20.9999L21.9172 21.3534L22.2707 20.9999L21.9172 20.6463L21.5636 20.9999ZM10 32.5635L9.64645 32.2099L9.29289 32.5635L9.64645 32.917L10 32.5635ZM10.4364 32.9999L10.0828 33.3534L10.4364 33.707L10.7899 33.3534L10.4364 32.9999ZM22 21.4362L22.3535 21.0827L22 20.7291L21.6464 21.0827L22 21.4362ZM33.5636 32.9999L33.21 33.3534L33.5636 33.707L33.9171 33.3534L33.5636 32.9999ZM34 32.5635L34.3535 32.9171L34.7071 32.5635L34.3535 32.21L34 32.5635ZM22.4363 20.9999L22.0828 20.6463L21.7292 20.9999L22.0828 21.3534L22.4363 20.9999ZM33.2099 9.35355L33.6463 9.78991L34.3534 9.08281L33.917 8.64645L33.2099 9.35355ZM22.3535 20.9171L33.917 9.35355L33.2099 8.64645L21.6464 20.21L22.3535 20.9171ZM10.0829 9.35358L21.6464 20.9171L22.3535 20.21L10.79 8.64648L10.0829 9.35358ZM10.3537 9.78994L10.79 9.35358L10.0829 8.64648L9.64655 9.08284L10.3537 9.78994ZM21.9172 20.6463L10.3537 9.08284L9.64655 9.78994L21.21 21.3534L21.9172 20.6463ZM10.3536 32.917L21.9172 21.3534L21.21 20.6463L9.64645 32.2099L10.3536 32.917ZM10.7899 32.6463L10.3536 32.2099L9.64645 32.917L10.0828 33.3534L10.7899 32.6463ZM21.6464 21.0827L10.0828 32.6463L10.7899 33.3534L22.3535 21.7898L21.6464 21.0827ZM33.9171 32.6463L22.3535 21.0827L21.6464 21.7898L33.21 33.3534L33.9171 32.6463ZM33.6464 32.21L33.21 32.6463L33.9171 33.3534L34.3535 32.9171L33.6464 32.21ZM22.0828 21.3534L33.6464 32.9171L34.3535 32.21L22.7899 20.6463L22.0828 21.3534ZM33.6463 9.08281L22.0828 20.6463L22.7899 21.3534L34.3534 9.78991L33.6463 9.08281Z" fill="#D4B464" mask="url(#path-2-outside-1)"/>
</svg>
