<svg width="17" height="10" viewBox="0 0 17 10" fill="none" xmlns="http://www.w3.org/2000/svg">
<path d="M6.10235 1.93144C6.66014 2.29097 6.93487 2.89298 6.93487 3.36956C6.93487 4.02174 6.78502 4.90803 5.39471 5.44314C3.84623 6.04515 2.2811 5.45987 2.10627 3.97157C1.26543 4.38963 0.624388 4.82441 0 5.40134L1.20715 9.99164H15.7845L17 5.40134C16.3923 4.8495 15.7096 4.37291 14.8937 3.97157C14.7189 5.45987 13.1538 6.04515 11.6053 5.44314C10.2067 4.89966 10.0651 4.02174 10.0651 3.36956C10.0651 2.89298 10.3399 2.29933 10.8976 1.93144L8.4667 0L6.10235 1.93144Z" fill="#D4B464"/>
</svg>
