<svg width="24" height="24" viewBox="0 0 24 24" fill="none" xmlns="http://www.w3.org/2000/svg">
<path d="M6.06741 10.9395C6.18891 10.671 6.45591 10.5 6.74991 10.5H9.74991V0.75C9.74991 0.336 10.0859 0 10.4999 0H13.4999C13.9139 0 14.2499 0.336 14.2499 0.75V10.5H17.2499C17.5439 10.5 17.8109 10.6725 17.9324 10.9395C18.0554 11.208 18.0074 11.5215 17.8139 11.7435L12.5639 17.7435C12.4214 17.907 12.2159 18 11.9999 18C11.7839 18 11.5784 17.9055 11.4359 17.7435L6.18591 11.7435C5.99091 11.523 5.94591 11.208 6.06741 10.9395Z" fill="url(#paint0_linear)"/>
<path d="M3.75 16.5V21H20.25V16.5H23.25V22.5C23.25 23.3295 22.578 24 21.75 24H2.25C1.4205 24 0.75 23.3295 0.75 22.5V16.5H3.75Z" fill="url(#paint1_linear)"/>
<defs>
<linearGradient id="paint0_linear" x1="20.1667" y1="10.2162" x2="3.10011" y2="10.2162" gradientUnits="userSpaceOnUse">
<stop offset="0.0810811" stop-color="#B58840"/>
<stop offset="0.494792" stop-color="#F2E996"/>
<stop offset="1" stop-color="#B58840"/>
</linearGradient>
<linearGradient id="paint1_linear" x1="27.3125" y1="20.7568" x2="-4.6875" y2="20.7568" gradientUnits="userSpaceOnUse">
<stop offset="0.0810811" stop-color="#B58840"/>
<stop offset="0.494792" stop-color="#F2E996"/>
<stop offset="1" stop-color="#B58840"/>
</linearGradient>
</defs>
</svg>
