<svg width="41" height="50" viewBox="0 0 41 50" fill="none" xmlns="http://www.w3.org/2000/svg">
<path d="M36.4766 26.7662L5.81952 21.3606C5.52528 21.3087 5.22248 21.3758 4.97773 21.5472C4.73299 21.7185 4.56635 21.9801 4.51446 22.2744L1.2959 40.5278C1.09771 41.66 1.35665 42.8245 2.01592 43.7661C2.67519 44.7076 3.68097 45.3493 4.81267 45.5502L29.1511 49.8418C30.2832 50.0399 31.4476 49.7809 32.3888 49.1215C33.3301 48.4622 33.9713 47.4563 34.1718 46.3247L37.3904 28.0713C37.4423 27.777 37.3752 27.4742 37.2038 27.2295C37.0324 26.9848 36.7708 26.8181 36.4766 26.7662ZM14.08 44.8928L5.20454 43.3278C4.66079 43.231 4.17764 42.9225 3.86104 42.4699C3.54445 42.0173 3.42025 41.4577 3.51569 40.9137L6.53895 23.768L17.4652 25.6946L14.08 44.8928ZM19.1423 45.7855L16.3696 45.2966L19.7539 26.1036L22.5266 26.5925L19.1423 45.7855ZM31.9557 45.9284C31.8593 46.4723 31.5512 46.9557 31.0989 47.2727C30.6466 47.5897 30.0871 47.7143 29.543 47.6194L21.4337 46.1895L24.818 26.9965L34.978 28.788L31.9557 45.9284ZM40.1453 15.7896L39.7815 11.303C39.6925 9.94925 39.1838 8.65685 38.3263 7.60554C37.4178 6.54955 36.2171 6.00214 35.0104 6.09952L24.4605 6.95405C24.6072 6.77376 24.7528 6.58962 24.8878 6.39267C25.1604 5.39533 26.3616 4.6566 26.1656 2.25027C26.1162 1.63037 25.0577 0.162967 24.4375 0.214157C22.6396 -0.599092 20.2966 0.976401 19.1667 3.71088C18.8626 3.21097 18.5117 2.74104 18.1189 2.30738C18.0379 2.2183 17.9294 2.16086 17.8493 2.0774C16.5516 0.662701 15.7752 0.606085 14.5934 0.727921C14.0427 0.788063 13.5295 1.03617 13.1403 1.43045C12.751 1.82474 12.5096 2.34111 12.4566 2.89259C12.3273 4.20528 12.51 5.44528 13.9393 7.28274C14.0932 7.46022 14.2629 7.62328 14.4464 7.76988L3.8964 8.6244C2.69542 8.71002 1.59725 9.45414 0.872181 10.6381C0.193579 11.8132 -0.100707 13.171 0.0304953 14.5217L0.392491 19.0079C0.417667 19.3053 0.559421 19.5806 0.786824 19.7738C1.01423 19.967 1.30882 20.0625 1.60633 20.0393L39.1142 17.0017C39.1902 16.9963 39.2654 16.9827 39.3385 16.961C39.5872 16.8883 39.8032 16.7321 39.9501 16.5187C40.0971 16.3053 40.166 16.0479 40.1453 15.7896ZM21.0292 5.13029C21.3118 4.21032 21.7875 3.36122 22.4243 2.63964C23.0389 1.95803 24.1519 2.63045 23.846 3.49603C23.6443 4.07151 23.3688 4.61841 23.0264 5.12304C22.8288 5.413 22.6062 5.6851 22.3612 5.93621C22.2357 6.06703 22.0694 6.15121 21.8897 6.17489C21.71 6.19858 21.5276 6.16036 21.3725 6.06653C21.2174 5.9727 21.0989 5.82885 21.0365 5.65868C20.9741 5.4885 20.9715 5.30214 21.0292 5.13029ZM14.3272 3.91389C14.2493 3.76139 14.2244 3.58724 14.2567 3.41905C14.289 3.25085 14.3765 3.09824 14.5053 2.98541C14.6341 2.87258 14.797 2.80598 14.9679 2.79618C15.1389 2.78638 15.3083 2.83394 15.4492 2.93131C15.7816 3.16193 16.0896 3.42592 16.3684 3.71918C16.9045 4.28376 17.3448 4.93204 17.672 5.63847C17.7381 5.78614 17.7542 5.95133 17.718 6.109C17.6817 6.26667 17.595 6.40823 17.4711 6.51221C17.3471 6.61618 17.1927 6.67691 17.0311 6.68519C16.8695 6.69347 16.7096 6.64884 16.5757 6.55807C16.2108 6.31951 15.8744 6.03982 15.5733 5.72452C15.0663 5.18948 14.6458 4.57858 14.3272 3.91389ZM2.5445 17.7089L2.27394 14.3389C2.18641 13.4603 2.36907 12.576 2.79754 11.804C2.99795 11.4745 3.42856 10.9155 4.08218 10.8611L35.1929 8.34474C35.8412 8.28938 36.3616 8.7734 36.6126 9.0676C37.1641 9.75878 37.4897 10.6028 37.5455 11.4853L37.8187 14.8503L2.5445 17.7089Z" fill="url(#paint0_linear)"/>
<defs>
<linearGradient id="paint0_linear" x1="-7.24911" y1="28.3255" x2="49.8515" y2="28.3255" gradientUnits="userSpaceOnUse">
<stop offset="0.0810811" stop-color="#B58840"/>
<stop offset="0.494792" stop-color="#F2E996"/>
<stop offset="1" stop-color="#B58840"/>
</linearGradient>
</defs>
</svg>
