<svg width="121" height="27" viewBox="0 0 121 27" fill="none" xmlns="http://www.w3.org/2000/svg">
<g clip-path="url(#clip0)">
<path d="M96.7717 10.6711C97.5442 10.5279 101.547 10.0265 101.547 5.51459C101.547 0.286472 94.7351 0.429708 92.839 0.429708H84.9736V0.501326C85.6057 1.14589 85.7461 2.57825 85.7461 3.79576V19.3369C85.7461 20.5544 85.4652 21.9867 84.9736 22.6313V22.7029H94.9458C97.3335 22.7029 102.671 21.7003 102.671 16.687C102.741 12.0318 99.0189 11.0292 96.7717 10.6711ZM93.4008 20.1963C91.7856 20.1963 90.662 19.695 90.662 19.695V2.86472H92.9794C94.5244 2.86472 96.4908 3.50928 96.4908 5.9443C96.4908 9.02387 94.3137 10.0265 93.1199 10.0265H92.5581L91.9963 12.1034C95.0862 12.1034 97.3335 13.0345 97.3335 16.4005C97.3335 19.5517 95.0862 20.1963 93.4008 20.1963Z" fill="url(#paint0_linear)"/>
<path d="M20.7867 22.6313C20.4355 21.8435 20.7164 20.626 21.2782 19.2652L22.1912 17.0451H30.2672L32.5145 22.6313H38.6944V22.5597C37.8517 21.9867 37.0792 20.3395 36.5174 18.9788L28.7925 0.429688H25.7025L16.4326 22.6313H20.7867ZM23.1743 14.6817L26.2643 7.09016L29.3543 14.6817H23.1743Z" fill="url(#paint1_linear)"/>
<path d="M2.6686 0.501343V2.86474H9.34011C9.34011 6.87535 9.34011 11.8886 9.34011 14.252C9.34011 21.3422 5.61811 24.9947 0.912943 24.9947H0L0.561811 27C0.632037 27 1.68543 27 1.75566 27C10.1126 26.7135 14.7475 21.2706 14.7475 11.7454V0.501343H2.6686Z" fill="url(#paint2_linear)"/>
<path d="M70.7878 0C64.4674 0 59.4111 4.08223 59.4111 11.5305C59.4111 19.3369 64.5377 22.9894 70.7878 22.9894C77.1082 22.9894 82.1645 19.0504 82.1645 11.4589C82.2347 4.01061 77.1082 0 70.7878 0ZM70.7878 20.626C66.9956 20.626 65.0995 17.1883 65.0995 11.5305C65.0995 5.9443 67.2063 2.43501 70.7878 2.43501C74.6502 2.43501 76.4761 5.87268 76.4761 11.5305C76.5464 17.1167 74.5098 20.626 70.7878 20.626Z" fill="url(#paint3_linear)"/>
<path d="M121 16.9019C121.21 14.0371 120.297 11.9602 114.96 9.23874C111.027 7.30505 109.974 6.73211 110.185 4.7268C110.325 3.5093 111.519 2.50664 113.907 2.50664C116.294 2.50664 118.682 3.72415 119.525 5.37137H119.595L120.508 1.86208C118.612 0.716194 116.575 0.14325 113.836 0.14325C109.553 0.14325 105.831 2.50665 105.831 6.51726C105.831 10.313 108.359 11.6021 111.449 13.1777C114.328 14.6817 116.084 15.6127 115.803 17.9761C115.592 19.9098 113.907 20.6976 112.081 20.6976C109.834 20.6976 107.516 19.695 106.463 17.9045H106.392L105.479 21.3422C107.516 22.6313 109.693 23.061 112.151 23.061C114.749 22.9894 120.578 22.2016 121 16.9019Z" fill="url(#paint4_linear)"/>
<path d="M44.3124 11.5305C44.3124 16.6154 46.7703 20.2679 51.1945 20.2679C53.512 20.2679 55.689 19.3368 56.5317 17.8329H56.602L57.5149 21.3422C55.6188 22.488 53.1609 23.061 50.3518 23.061C44.2421 23.061 38.624 18.9071 38.624 11.5305C38.624 4.15382 44.1719 0.0715942 50.3518 0.0715942C53.0906 0.0715942 55.5486 0.644539 57.5149 1.79043L56.602 5.29971H56.5317C55.689 3.72411 53.512 2.8647 51.2648 2.8647C46.7703 2.8647 44.3124 6.51722 44.3124 11.5305Z" fill="url(#paint5_linear)"/>
<path d="M44.3124 11.5305C44.3124 16.6154 46.7703 20.2679 51.1945 20.2679C53.512 20.2679 55.689 19.3368 56.5317 17.8329H56.602L57.5149 21.3422C55.6188 22.488 53.1609 23.061 50.3518 23.061C44.2421 23.061 38.624 18.9071 38.624 11.5305C38.624 4.15382 44.1719 0.0715942 50.3518 0.0715942C53.0906 0.0715942 55.5486 0.644539 57.5149 1.79043L56.602 5.29971H56.5317C55.689 3.72411 53.512 2.8647 51.2648 2.8647C46.7703 2.8647 44.3124 6.51722 44.3124 11.5305Z" fill="url(#paint6_linear)"/>
</g>
<defs>
<linearGradient id="paint0_linear" x1="93.8226" y1="0.429321" x2="93.8226" y2="22.7029" gradientUnits="userSpaceOnUse">
<stop stop-color="white"/>
<stop offset="1" stop-color="#C2C2C2"/>
</linearGradient>
<linearGradient id="paint1_linear" x1="27.5635" y1="0.429687" x2="27.5635" y2="22.6313" gradientUnits="userSpaceOnUse">
<stop stop-color="white"/>
<stop offset="1" stop-color="#C2C2C2"/>
</linearGradient>
<linearGradient id="paint2_linear" x1="7.37377" y1="0.501343" x2="7.37377" y2="27" gradientUnits="userSpaceOnUse">
<stop stop-color="white"/>
<stop offset="1" stop-color="#C2C2C2"/>
</linearGradient>
<linearGradient id="paint3_linear" x1="70.7882" y1="0" x2="70.7882" y2="22.9894" gradientUnits="userSpaceOnUse">
<stop stop-color="white"/>
<stop offset="1" stop-color="#C2C2C2"/>
</linearGradient>
<linearGradient id="paint4_linear" x1="113.253" y1="0.14325" x2="113.253" y2="23.061" gradientUnits="userSpaceOnUse">
<stop stop-color="white"/>
<stop offset="1" stop-color="#C2C2C2"/>
</linearGradient>
<linearGradient id="paint5_linear" x1="48.0695" y1="0.0715942" x2="48.0695" y2="23.061" gradientUnits="userSpaceOnUse">
<stop stop-color="white"/>
<stop offset="1" stop-color="#C2C2C2"/>
</linearGradient>
<linearGradient id="paint6_linear" x1="48.0695" y1="0.0715942" x2="48.0695" y2="23.061" gradientUnits="userSpaceOnUse">
<stop stop-color="white"/>
<stop offset="1" stop-color="#C2C2C2"/>
</linearGradient>
<clipPath id="clip0">
<rect width="121" height="27" fill="white"/>
</clipPath>
</defs>
</svg>
