<svg width="120" height="48" viewBox="0 0 120 48" fill="none" xmlns="http://www.w3.org/2000/svg">
<rect width="120" height="48" rx="15" fill="white"/>
<path fill-rule="evenodd" clip-rule="evenodd" d="M103.168 4.76137L103.168 4.76133L103.171 4.75981C103.268 4.71558 103.352 4.67695 103.422 4.64514C103.422 5.82964 99.5237 8.51606 99.2008 8.69744C95.0346 11.0311 94.1575 6.58503 94.2969 6.26429C95.5676 6.7465 96.1096 6.81286 97.5606 6.65802C99.4756 6.45516 102.085 5.25791 103.168 4.76137ZM25.6599 12.8703C25.9155 12.6332 26.0942 12.3251 26.1731 11.9855L26.1742 11.9822C26.3423 11.1339 25.901 10.7048 24.8537 10.7048H24.0629C23.2821 10.7302 22.8286 10.9072 22.5798 11.615L22.248 13.285H24.4212C24.9661 13.285 25.379 13.1468 25.6599 12.8703ZM24.6734 18.9023C24.9699 18.6615 25.1761 18.3274 25.2585 17.9545L25.2596 17.9523C25.2958 17.7862 25.2973 17.6144 25.264 17.4476C25.2306 17.2809 25.1633 17.1229 25.066 16.9834C24.8647 16.687 24.4223 16.541 23.7333 16.541H21.6065L21.0535 19.3193H23.3462C23.9092 19.3193 24.3516 19.1821 24.6734 18.9023ZM30.1469 8.64215C30.7227 9.45541 30.9071 10.3874 30.6999 11.4381L30.6965 11.4403C30.5329 12.2471 30.1417 12.9902 29.5692 13.5819C28.9968 14.1735 28.267 14.589 27.466 14.7792C29.352 15.2563 30.1071 16.4445 29.731 18.3438C29.495 19.5007 28.9202 20.5613 28.0798 21.3908C27.2031 22.2844 25.622 22.7312 23.3363 22.7312H16.049L18.4202 10.7501C18.9323 8.07367 20.067 7.48529 22.3409 7.42557H26.8555C28.4739 7.42336 29.571 7.82888 30.1469 8.64215ZM51.4093 19.5294C51.7112 19.0328 51.9612 18.2697 52.1658 17.2367L52.1613 17.2312C52.3969 16.0445 52.4434 15.205 52.3095 14.7239C52.1757 14.2428 51.8749 14.0006 51.4115 14.0006C51.09 14.0201 50.7817 14.1357 50.5267 14.3324C50.2104 14.5492 50.0058 14.9053 49.9085 15.3997L49.2593 18.6723C49.1582 19.1818 49.1951 19.5758 49.3699 19.8546C49.4506 19.9883 49.5658 20.0979 49.7033 20.172C49.8408 20.2461 49.9957 20.282 50.1518 20.2759C50.6915 20.2759 51.1073 20.026 51.4093 19.5294ZM53.5991 11.1992C54.9517 11.1992 55.9128 11.7256 56.4747 12.7885L56.4713 12.8017C57.0302 13.8524 57.1294 15.2902 56.7688 17.115C56.4068 18.9406 55.7252 20.3917 54.7239 21.4682C53.7226 22.5447 52.575 23.0829 51.281 23.0829C50.0098 23.0836 49.1391 22.5977 48.6687 21.6252L48.2263 23.867C47.6268 26.2471 46.376 26.6663 43.9671 26.6663H43.1996L45.5631 14.7405V14.7505C46.063 12.1426 47.1568 11.5199 49.3146 11.4325H50.3321L50.0124 13.0484C50.8342 11.8152 52.0253 11.1992 53.5991 11.1992ZM77.8477 18.9698C77.7974 19.3083 77.6525 19.6258 77.4296 19.8855C77.2313 20.089 76.8814 20.1911 76.38 20.1919H74.9257L75.2475 18.5694C75.4212 17.9224 75.7673 17.7731 76.4033 17.7576H76.8656C77.2947 17.7576 77.5867 17.8428 77.7504 18.0053C77.914 18.1679 77.945 18.492 77.8499 18.9698H77.8477ZM81.1933 16.2922C80.5924 15.6286 79.5712 15.2968 78.1297 15.2968H76.0538L76.8169 11.4381H75.5295C73.3552 11.5077 72.2415 12.0906 71.7172 14.5967L70.1003 22.7622H76.6499C77.4156 22.7477 78.1755 22.6256 78.9072 22.3994C79.7411 22.1539 80.3859 21.7181 80.8438 21.0866C81.2917 20.4787 81.5995 19.7792 81.7451 19.0383C81.9774 17.8748 81.7938 16.958 81.1922 16.2955L81.1933 16.2922ZM68.8251 19.4851C68.2721 22.2843 67.0224 22.7588 64.4609 22.7588H63.7044L64.6158 18.1369H62.5144L62.1948 19.7517C61.613 22.3131 60.3644 22.7555 57.8892 22.7555H57.125L58.712 14.7416V14.7537C59.2186 12.1094 60.3356 11.5077 62.5586 11.4358H63.8427L63.0409 15.4837H65.1422L65.2882 14.7449V14.7537C65.7958 12.1094 66.9151 11.5077 69.137 11.4358H70.4199L68.8251 19.4851ZM82.5967 22.7577C85.1759 22.7577 86.4279 22.2766 86.9742 19.4243V19.431L88.5569 11.4347H87.2728C85.0553 11.5055 83.9372 12.1061 83.4295 14.7449L81.8425 22.7588H82.5978L82.5967 22.7577ZM95.8552 22.7588H95.0921L96.3308 16.8562L94.5336 19.4398C94.4056 19.6114 94.2846 19.7751 94.1692 19.9312C92.6089 22.0414 92.0793 22.7577 89.4018 22.7577H88.2085L89.8177 14.6299C90.3375 12.0972 91.4523 11.5033 93.6377 11.4336H94.9295C94.9295 11.4336 93.8556 16.6439 93.5393 17.8129C94.2128 16.7755 95.6406 14.7604 95.6406 14.7604V14.767C95.7731 14.5892 95.8982 14.4199 96.0172 14.2587C97.5744 12.1498 98.1016 11.4358 100.781 11.4358H101.808L100.161 19.7528C99.5823 22.3098 98.3315 22.7588 95.8552 22.7588ZM99.1842 28.0675C101.34 28.1637 103.337 28.0366 103.742 26.8189C58.105 23.4561 23.9726 31.1885 22.3285 31.561C22.2936 31.5689 22.2733 31.5735 22.2679 31.5746C17.4016 32.4594 13.2188 34.8328 12.3871 38.352C37.2882 29.9875 71.4596 26.6629 99.1123 28.0664L99.1842 28.0675ZM38.0059 13.7529C38.4483 13.7529 38.8056 13.8878 39.0544 14.151C39.2457 14.3567 39.321 14.8024 39.2756 15.2979C39.2645 15.4516 39.2203 15.7005 38.8996 15.7005L36.024 15.7071C36.2806 14.4058 36.9402 13.7543 38.0026 13.7529H38.0059ZM39.9779 18.9963H39.5222C39.2377 19.0133 38.9652 19.1172 38.7414 19.2938C38.6773 19.3507 38.6327 19.4059 38.5843 19.4659L38.5843 19.4659C38.5217 19.5434 38.4527 19.6289 38.3267 19.7362C37.986 20.0127 37.5337 20.068 36.921 20.068C36.2474 20.068 35.8272 19.891 35.658 19.5471C35.4887 19.2031 35.4655 18.6623 35.5916 17.9456H39.2778C42.3823 17.9456 43.9406 17.9456 43.4263 14.6277C43.301 13.952 43.0104 13.3178 42.5803 12.7818C41.6741 11.6758 40.3101 11.1228 38.4882 11.1228C36.6036 11.1228 34.9815 11.7098 33.6219 12.8836C32.2615 14.0581 31.4099 15.497 31.0726 17.1969C30.7474 18.8411 31.0471 20.2177 31.9717 21.3266C32.893 22.4392 34.3197 22.9944 36.2397 22.9944C37.965 22.9944 39.4135 22.5988 40.5851 21.8077C41.7519 21.0191 42.4807 20.2427 42.9165 18.9985L39.9779 18.9963ZM97.7904 33.5703C97.8051 33.633 97.8059 33.6981 97.7929 33.7611L97.3604 38.4615C97.357 38.5077 97.3392 38.5517 97.3094 38.5872C97.2796 38.6227 97.2395 38.648 97.1945 38.6595C97.0268 38.7052 96.8529 38.7242 96.6792 38.7159C96.5332 38.7159 96.417 38.7137 96.3308 38.7093C96.2655 38.7076 96.2008 38.6972 96.1383 38.6783C96.093 38.6639 96.0653 38.6418 96.0576 38.6141C96.0468 38.5783 96.0434 38.5407 96.0476 38.5035L96.2854 35.8072C96.2908 35.7401 96.2998 35.6637 96.3106 35.5714C96.3132 35.5495 96.3159 35.5268 96.3186 35.503C96.333 35.3792 96.3485 35.2486 96.3684 35.1071C96.3883 34.9655 96.4093 34.8239 96.4314 34.6791C96.4535 34.5342 96.4757 34.4004 96.4978 34.2765H96.4867C96.437 34.3771 96.3839 34.4877 96.3264 34.6083C96.2913 34.6817 96.2555 34.7556 96.2193 34.8301C96.1961 34.8779 96.1727 34.926 96.1494 34.9744C96.1195 35.0363 96.0894 35.0974 96.0593 35.1585C96.0291 35.2196 95.999 35.2807 95.9691 35.3427C95.9094 35.4665 95.8552 35.5771 95.8065 35.6744L94.3688 38.4549C94.3468 38.4985 94.3176 38.5382 94.2825 38.5721C94.2411 38.6095 94.192 38.6375 94.1387 38.654C94.067 38.6775 93.9928 38.6928 93.9175 38.6993C93.8117 38.7099 93.7054 38.7147 93.599 38.7137C93.5007 38.715 93.4025 38.7102 93.3048 38.6993C93.2389 38.6931 93.1742 38.6778 93.1124 38.654C93.0675 38.6396 93.0287 38.6108 93.0018 38.5721C92.9799 38.5339 92.9656 38.4919 92.9598 38.4482L92.6567 35.6744C92.6412 35.5661 92.628 35.4488 92.6169 35.3227C92.6058 35.1967 92.5948 35.0728 92.5859 34.9489C92.5807 34.8761 92.5763 34.8051 92.5719 34.7356C92.5689 34.687 92.5659 34.639 92.5627 34.5917C92.555 34.4767 92.555 34.3727 92.555 34.2787H92.5439C92.5399 34.2955 92.5359 34.3126 92.5318 34.3299C92.5088 34.4276 92.4839 34.5333 92.451 34.647C92.4148 34.7721 92.3815 34.8972 92.3475 35.025L92.3404 35.0518C92.3039 35.1889 92.2674 35.3239 92.2298 35.4544L92.1281 35.8094L91.3052 38.4704C91.2921 38.514 91.2711 38.5548 91.2433 38.5909C91.2099 38.6274 91.167 38.6539 91.1194 38.6672C91.0475 38.6887 90.9732 38.701 90.8982 38.7037C90.8076 38.7126 90.6782 38.7126 90.5434 38.7126H90.5432C90.4083 38.7126 90.301 38.7081 90.2247 38.7004C90.1646 38.698 90.1056 38.6837 90.051 38.6584C90.034 38.6519 90.0189 38.6414 90.0069 38.6277C89.995 38.614 89.9866 38.5976 89.9825 38.5799C89.9788 38.5387 89.9837 38.4973 89.9968 38.4582L91.4346 33.76C91.4738 33.619 91.5538 33.4928 91.6647 33.3972C91.7876 33.3099 91.9366 33.2669 92.0871 33.2756H92.7507C92.877 33.2731 93.0031 33.2846 93.1268 33.3099C93.2188 33.3275 93.3048 33.3682 93.3767 33.4282C93.4468 33.4896 93.4985 33.5692 93.526 33.6582C93.5641 33.7769 93.5868 33.8999 93.5935 34.0243L93.8147 35.7463C93.8291 35.8591 93.8412 35.9764 93.8512 36.098C93.8586 36.1885 93.8641 36.2795 93.8697 36.3703C93.8716 36.4016 93.8735 36.4329 93.8755 36.4641C93.8832 36.5858 93.8899 36.703 93.8932 36.818C93.8945 36.8628 93.8965 36.9063 93.8984 36.9489C93.9014 37.0157 93.9043 37.0799 93.9043 37.1421H93.9153C93.9402 37.0869 93.9657 37.0284 93.9924 36.9671C94.0145 36.9166 94.0373 36.8642 94.0613 36.8103C94.0771 36.7748 94.0926 36.7391 94.1081 36.7032C94.145 36.6183 94.1823 36.5324 94.225 36.4453C94.2535 36.3872 94.2801 36.3286 94.3064 36.2708C94.3361 36.2054 94.3653 36.1409 94.3964 36.0792C94.455 35.9631 94.5148 35.847 94.5745 35.7419L95.4681 34.0254C95.5242 33.9053 95.5893 33.7896 95.6628 33.6793C95.7801 33.4971 95.9638 33.3678 96.1748 33.3187C96.305 33.2888 96.4383 33.2747 96.5719 33.2767H97.3317C97.3994 33.2699 97.4677 33.2773 97.5324 33.2982C97.5971 33.3191 97.6568 33.3532 97.7077 33.3983C97.7475 33.449 97.7757 33.5077 97.7904 33.5703ZM87.7517 36.4597C87.8671 36.229 87.9512 35.9838 88.0017 35.7309L88.1631 34.9677C88.0507 34.7829 87.8998 34.6245 87.7207 34.5032C87.5556 34.3984 87.3633 34.3445 87.1678 34.3484C87.016 34.3463 86.8664 34.3845 86.7342 34.459C86.6004 34.5367 86.4822 34.6387 86.3858 34.7598C86.2784 34.8955 86.1885 35.0441 86.1182 35.2022C86.0412 35.3684 85.9772 35.5403 85.9268 35.7165C85.8769 35.8938 85.8399 36.0746 85.8162 36.2573C85.7921 36.424 85.7795 36.5921 85.7786 36.7605C85.7782 36.868 85.7871 36.9753 85.8052 37.0813C85.8188 37.1761 85.8499 37.2676 85.897 37.3511C85.9419 37.4344 86.0097 37.503 86.0924 37.5489C86.1751 37.5948 86.2693 37.6159 86.3637 37.6099C86.5429 37.6067 86.7179 37.5551 86.8702 37.4606C87.0529 37.3532 87.2165 37.2165 87.3547 37.0558C87.5118 36.8748 87.6452 36.6744 87.7517 36.4597ZM89.8531 33.3641C89.868 33.3946 89.8719 33.4294 89.8641 33.4625L88.8599 38.4892C88.8493 38.5312 88.8271 38.5693 88.7958 38.5993C88.7645 38.6292 88.7254 38.6497 88.6829 38.6584C88.5203 38.6988 88.3527 38.716 88.1852 38.7093C88.0904 38.71 87.9955 38.706 87.901 38.6971C87.8408 38.6923 87.7814 38.6804 87.7241 38.6617C87.7057 38.6566 87.6885 38.648 87.6735 38.6362C87.6585 38.6244 87.646 38.6098 87.6367 38.5931C87.6227 38.5603 87.6196 38.5239 87.6278 38.4892L87.786 37.6851C87.7151 37.8244 87.6238 37.9523 87.515 38.0645C87.3839 38.204 87.2352 38.326 87.0726 38.4272C86.8976 38.5393 86.7097 38.6299 86.513 38.6971C86.31 38.7697 86.096 38.8071 85.8804 38.8077C85.6217 38.817 85.3647 38.7631 85.1316 38.6506C84.9389 38.5514 84.7745 38.4049 84.6539 38.2248C84.5303 38.0396 84.4436 37.8323 84.3984 37.6143C84.3466 37.3779 84.321 37.1364 84.3221 36.8943C84.3237 36.6349 84.3463 36.376 84.3895 36.1202C84.435 35.8361 84.5046 35.5563 84.5975 35.284C84.6909 35.0055 84.8116 34.7369 84.958 34.4822C85.0996 34.2301 85.2765 33.9996 85.4833 33.7976C85.6882 33.5995 85.9263 33.4389 86.1868 33.3231C86.4699 33.2003 86.7762 33.1395 87.0848 33.1451C87.3724 33.1397 87.6567 33.2062 87.9121 33.3386C88.1619 33.4774 88.3771 33.671 88.5414 33.9049L88.6321 33.4625C88.6426 33.4206 88.6648 33.3825 88.6961 33.3527C88.7275 33.323 88.7666 33.3027 88.809 33.2944C88.9716 33.2534 89.1392 33.2363 89.3067 33.2435C89.4009 33.2426 89.4951 33.247 89.5887 33.2568C89.649 33.2633 89.7084 33.2767 89.7657 33.2966C89.8018 33.3081 89.8328 33.332 89.8531 33.3641ZM83.9505 33.5653C83.9868 33.5956 84.0162 33.6334 84.0367 33.6759L84.0312 33.6848C84.0459 33.7244 84.0527 33.7665 84.0511 33.8087C84.0499 33.9071 84.0399 34.0051 84.0212 34.1017C84.0016 34.2068 83.9742 34.3103 83.9394 34.4114C83.9104 34.4992 83.8675 34.5817 83.8122 34.6558C83.7945 34.6844 83.7702 34.7082 83.7413 34.7253C83.7124 34.7425 83.6798 34.7524 83.6463 34.7543C83.5859 34.7526 83.5281 34.7291 83.4837 34.6879C83.4692 34.6764 83.4538 34.6639 83.4375 34.6508C83.3944 34.616 83.3453 34.5762 83.2891 34.5353C83.1994 34.4717 83.102 34.4197 82.9993 34.3805C82.855 34.3289 82.7023 34.3049 82.5492 34.3097C82.3665 34.3066 82.1862 34.3512 82.0261 34.4391C81.8724 34.5237 81.7359 34.6362 81.6235 34.7709C81.507 34.9121 81.4113 35.0693 81.3392 35.2376C81.2652 35.4093 81.2031 35.586 81.1534 35.7662C81.107 35.9347 81.0723 36.1062 81.0495 36.2794C81.0307 36.4202 81.0204 36.5621 81.0185 36.7041C81.0185 37.0083 81.086 37.2394 81.2187 37.3965C81.3514 37.5535 81.5604 37.6331 81.8458 37.6331C82.0295 37.6373 82.2126 37.6093 82.3866 37.5502C82.5207 37.5037 82.6496 37.4437 82.7715 37.371C82.7955 37.3558 82.8188 37.341 82.8414 37.3267C82.9189 37.2778 82.9881 37.234 83.048 37.193C83.1087 37.1467 83.1819 37.1197 83.2581 37.1155C83.2753 37.1146 83.2924 37.119 83.3071 37.1281C83.3217 37.1372 83.3332 37.1506 83.34 37.1664C83.3593 37.2125 83.368 37.2624 83.3654 37.3124C83.3637 37.3921 83.3564 37.4716 83.3433 37.5502C83.3278 37.6464 83.3079 37.7426 83.2836 37.8411C83.2608 37.9337 83.2327 38.0249 83.1995 38.1142C83.1731 38.1891 83.1304 38.2571 83.0745 38.3133C83.0022 38.3779 82.9223 38.4336 82.8367 38.4792C82.7164 38.5461 82.5902 38.6016 82.4596 38.6451C82.3081 38.6968 82.1528 38.7363 81.9951 38.7634C81.8231 38.7939 81.6488 38.8091 81.4742 38.8088C80.8349 38.8088 80.3549 38.6451 80.0364 38.3211C79.7179 37.997 79.5575 37.517 79.5575 36.8833C79.5597 36.6305 79.5815 36.3784 79.6228 36.129C79.6677 35.8484 79.7384 35.5726 79.834 35.305C79.9328 35.0252 80.0599 34.7561 80.2134 34.5021C80.3676 34.2455 80.5605 34.0142 80.7851 33.8164C81.0163 33.613 81.2808 33.451 81.5671 33.3375C81.8937 33.2121 82.2414 33.1508 82.5912 33.1572C82.7393 33.1572 82.8872 33.1687 83.0336 33.1915C83.1672 33.2116 83.2989 33.2426 83.4273 33.2844C83.5377 33.3193 83.6441 33.3656 83.7448 33.4227C83.8188 33.4618 83.8879 33.5097 83.9505 33.5653ZM77.308 36.2429C77.3576 36.0648 77.3946 35.8833 77.4186 35.6999L77.413 35.7021C77.4366 35.5313 77.4487 35.3591 77.4495 35.1867C77.4506 35.0698 77.4403 34.9532 77.4186 34.8383C77.4054 34.7424 77.3734 34.6499 77.3245 34.5663C77.2812 34.4956 77.2192 34.4382 77.1454 34.4004C77.062 34.3604 76.9702 34.341 76.8777 34.344C76.6978 34.3472 76.5221 34.3988 76.369 34.4933C76.1876 34.601 76.0251 34.7378 75.8879 34.8981C75.73 35.0794 75.5959 35.2801 75.4886 35.4953C75.3712 35.7249 75.2877 35.9705 75.2409 36.2241L75.0827 36.9883C75.1929 37.1731 75.342 37.3316 75.5196 37.4529C75.6847 37.5577 75.877 37.6115 76.0726 37.6077C76.2215 37.6096 76.3682 37.5714 76.4973 37.4971C76.631 37.4192 76.7491 37.3172 76.8457 37.1963C76.9541 37.0634 77.0449 36.9169 77.1155 36.7605C77.1934 36.5934 77.2577 36.4203 77.308 36.2429ZM78.561 33.7069C78.6879 33.8906 78.7776 34.0972 78.8254 34.3152L78.8309 34.313C78.8867 34.5583 78.9141 34.8091 78.9127 35.0606C78.9112 35.3249 78.8887 35.5885 78.8453 35.8492C78.7988 36.1338 78.7293 36.4142 78.6373 36.6875C78.543 36.9657 78.4223 37.2342 78.2768 37.4894C78.1356 37.74 77.9582 37.9684 77.7503 38.1673C77.5433 38.3633 77.3033 38.5213 77.0414 38.634C76.7595 38.753 76.456 38.8121 76.15 38.8077C76.0079 38.8084 75.8662 38.7932 75.7275 38.7623C75.6021 38.7344 75.4804 38.6921 75.3647 38.6363C75.2575 38.5841 75.1566 38.5199 75.0639 38.4449C74.9778 38.3748 74.8986 38.2967 74.8272 38.2116L74.3849 40.4788C74.3772 40.5173 74.3584 40.5527 74.3307 40.5806C74.2941 40.6158 74.2498 40.642 74.2013 40.6569C74.1272 40.6807 74.0508 40.6966 73.9734 40.7044C73.8577 40.7166 73.7414 40.7221 73.625 40.721C73.512 40.7224 73.399 40.7169 73.2866 40.7044C73.2168 40.6969 73.1481 40.6809 73.082 40.6569C73.0412 40.6434 73.0061 40.6165 72.9825 40.5806C72.968 40.5487 72.9641 40.513 72.9714 40.4788L74.3749 33.468C74.3844 33.4262 74.4059 33.388 74.4367 33.3582C74.4676 33.3283 74.5064 33.3081 74.5485 33.2999C74.7122 33.2586 74.881 33.2414 75.0495 33.249C75.1445 33.248 75.2394 33.2524 75.3338 33.2623C75.3933 33.2691 75.4519 33.2824 75.5085 33.3021C75.5444 33.3136 75.575 33.3375 75.5948 33.3696C75.6107 33.3998 75.615 33.4348 75.607 33.468L75.4488 34.2842C75.5177 34.1426 75.608 34.0124 75.7165 33.8982C75.8476 33.758 75.9963 33.6353 76.1588 33.5333C76.3344 33.4199 76.5231 33.3282 76.7207 33.2601C76.9243 33.1881 77.1385 33.1508 77.3544 33.1495C77.6057 33.1415 77.8553 33.1927 78.0832 33.2988C78.2739 33.3931 78.4381 33.5333 78.561 33.7069ZM71.1985 35.2144C71.308 35.1605 71.4012 35.0784 71.4684 34.9766H71.464C71.5193 34.8881 71.5484 34.7857 71.548 34.6813C71.5492 34.6094 71.5339 34.5382 71.5032 34.4732C71.4725 34.4082 71.4273 34.3511 71.3711 34.3064C71.2223 34.1973 71.0397 34.1444 70.8557 34.157C70.6827 34.1547 70.5112 34.189 70.3525 34.2577C70.2068 34.3242 70.0744 34.4168 69.9621 34.5309C69.8457 34.6511 69.7477 34.7879 69.6712 34.9368C69.5892 35.0953 69.5243 35.2622 69.4776 35.4345H69.9543C70.2074 35.4387 70.4603 35.419 70.7097 35.3758C70.8799 35.347 71.0447 35.2926 71.1985 35.2144ZM72.4715 33.5919C72.6213 33.7153 72.7412 33.8711 72.8221 34.0476L72.8321 34.0498C72.9065 34.2152 72.9442 34.3948 72.9427 34.5762C72.9465 34.8309 72.8836 35.0822 72.7602 35.305C72.6212 35.535 72.4254 35.7254 72.1917 35.858C71.888 36.0315 71.557 36.1523 71.2129 36.2153C70.7465 36.3049 70.2722 36.3468 69.7973 36.3402H69.2797C69.269 36.3988 69.262 36.4579 69.2551 36.5164C69.252 36.543 69.2488 36.5695 69.2454 36.5957C69.2343 36.6798 69.2343 36.7571 69.2343 36.829V36.8291C69.2328 37.1321 69.311 37.3607 69.4688 37.5148C69.6266 37.6689 69.8802 37.7459 70.2297 37.7459C70.4521 37.7475 70.6741 37.7293 70.8933 37.6918C71.067 37.6609 71.239 37.621 71.4087 37.5723C71.5558 37.5292 71.6785 37.4905 71.777 37.454C71.845 37.4255 71.917 37.4076 71.9904 37.4009C72.0082 37.3992 72.0262 37.4018 72.0427 37.4085C72.0593 37.4153 72.074 37.4259 72.0855 37.4396C72.1077 37.4769 72.1178 37.5202 72.1143 37.5635C72.1137 37.6375 72.1081 37.7114 72.0977 37.7847C72.0855 37.8676 72.07 37.9494 72.0501 38.0291C72.0301 38.1071 72.0035 38.1834 71.9705 38.2569C71.9455 38.3186 71.9078 38.3744 71.8599 38.4206C71.7872 38.4817 71.7029 38.5275 71.6122 38.5555C71.4711 38.6068 71.3266 38.6482 71.1797 38.6794C70.9916 38.7201 70.8015 38.7511 70.6102 38.7723C70.3976 38.7968 70.1838 38.809 69.9698 38.8088C69.6518 38.8147 69.3344 38.7775 69.0264 38.6982C68.78 38.6342 68.5505 38.5172 68.354 38.3553C68.1713 38.1967 68.032 37.9943 67.9492 37.767C67.8538 37.4953 67.8081 37.2087 67.8142 36.9209C67.8159 36.65 67.8392 36.3796 67.8839 36.1124C67.9324 35.8225 68.0091 35.538 68.1129 35.263C68.2187 34.982 68.3544 34.7132 68.5176 34.4612C68.6812 34.2072 68.8834 33.9803 69.1171 33.7888C69.3605 33.5901 69.6352 33.4331 69.93 33.3242C70.2671 33.2029 70.6235 33.1436 70.9818 33.1495C71.2812 33.1434 71.5797 33.184 71.8665 33.2701C72.0868 33.3379 72.2922 33.4471 72.4715 33.5919ZM65.2639 37.5225C65.3572 37.4385 65.4292 37.3335 65.474 37.2162V37.2151C65.5189 37.1021 65.5422 36.9817 65.5426 36.8601C65.5427 36.7842 65.528 36.7091 65.4994 36.6389C65.4679 36.5638 65.4143 36.5002 65.3457 36.4564C65.2493 36.3972 65.1434 36.3553 65.0327 36.3325C64.8637 36.297 64.6911 36.2811 64.5184 36.2849H63.5839C63.5614 36.3861 63.5444 36.4883 63.533 36.5913C63.5215 36.7015 63.516 36.8123 63.5164 36.9231C63.5164 37.2317 63.5839 37.4562 63.7188 37.5989C63.8537 37.7415 64.0738 37.8123 64.3769 37.8123C64.5537 37.8161 64.7299 37.7895 64.8978 37.7338C65.0329 37.6891 65.1575 37.6172 65.2639 37.5225ZM65.5481 35.2144C65.6382 35.1484 65.7114 35.062 65.7615 34.9622L65.7626 34.9578C65.8118 34.8541 65.8367 34.7407 65.8356 34.626C65.8354 34.5619 65.8219 34.4987 65.7958 34.4402C65.7674 34.3783 65.725 34.3237 65.672 34.2809C65.6092 34.2298 65.5365 34.1921 65.4585 34.1703C65.3558 34.1426 65.2497 34.1295 65.1433 34.1316C64.992 34.1311 64.842 34.1589 64.7009 34.2135C64.5577 34.2697 64.4258 34.3514 64.3116 34.4546C64.1855 34.5727 64.0784 34.7096 63.9942 34.8604C63.8939 35.039 63.8149 35.2287 63.7586 35.4256H64.7087C64.8717 35.4275 65.0343 35.4097 65.1931 35.3725C65.3207 35.3436 65.4413 35.2899 65.5481 35.2144ZM66.7425 36.1611C66.8161 36.2517 66.8713 36.3557 66.9051 36.4674L66.9084 36.4652C66.9418 36.5768 66.9589 36.6927 66.9593 36.8092C66.9586 36.9704 66.9378 37.1309 66.8974 37.287C66.8546 37.451 66.7879 37.6079 66.6994 37.7526C66.6043 37.9066 66.4869 38.0456 66.351 38.1651C66.1963 38.3002 66.0227 38.412 65.8356 38.4969C65.6122 38.597 65.3781 38.6712 65.1378 38.7181C64.8423 38.7751 64.5418 38.8021 64.2408 38.7988C63.9273 38.8042 63.6147 38.7636 63.3129 38.6783C63.0682 38.6104 62.8416 38.4891 62.6493 38.3233C62.4727 38.1645 62.3366 37.9658 62.2523 37.7437C62.1584 37.4889 62.1126 37.2189 62.1173 36.9474C62.1206 36.7254 62.1376 36.5038 62.1682 36.2838C62.2056 36.0083 62.2659 35.7364 62.3485 35.4709C62.4383 35.1787 62.5569 34.896 62.7024 34.6271C62.8523 34.3483 63.0461 34.0955 63.2764 33.8783C63.5212 33.6518 63.8043 33.4706 64.1125 33.343C64.4767 33.1994 64.8658 33.1298 65.2572 33.1384C65.5537 33.1342 65.8492 33.1715 66.1354 33.249C66.3525 33.3076 66.5574 33.4046 66.7403 33.5355C66.8897 33.6436 67.0101 33.7868 67.0909 33.9524C67.1647 34.1071 67.2025 34.2765 67.2015 34.4479C67.2033 34.6111 67.1717 34.773 67.1086 34.9235C67.0485 35.0655 66.9626 35.1953 66.8554 35.3062C66.7442 35.4198 66.6163 35.5157 66.476 35.5904C66.3271 35.6695 66.1683 35.7283 66.0038 35.7651C66.1587 35.7917 66.3082 35.8436 66.4461 35.9189C66.5587 35.9812 66.6591 36.0632 66.7425 36.1611ZM61.5887 33.3563C61.6036 33.3869 61.6076 33.4216 61.5997 33.4547L60.5889 38.4892C60.582 38.5256 60.5656 38.5596 60.5413 38.5876C60.5113 38.6197 60.473 38.643 60.4307 38.6551C60.3679 38.6754 60.303 38.6888 60.2372 38.6949C60.1399 38.7056 60.042 38.7104 59.9441 38.7093C59.8484 38.71 59.7527 38.7044 59.6576 38.6927C59.599 38.6873 59.5413 38.6739 59.4862 38.6528C59.4511 38.642 59.4217 38.6178 59.4044 38.5854C59.3926 38.5536 59.3926 38.5187 59.4044 38.4869L59.557 37.6707C59.4715 37.816 59.3674 37.9495 59.2473 38.0678C59.1102 38.2062 58.9581 38.329 58.7939 38.4339C58.6213 38.5453 58.4356 38.6348 58.2409 38.7004C58.0433 38.7678 57.8359 38.8022 57.6271 38.8022C57.4009 38.8073 57.1758 38.7698 56.9635 38.6916C56.7943 38.6288 56.6426 38.5264 56.5211 38.3929C56.4076 38.2617 56.3248 38.1068 56.2789 37.9395C56.227 37.753 56.2017 37.5601 56.2037 37.3666C56.2042 37.2357 56.2123 37.105 56.228 36.9751C56.2457 36.8413 56.2667 36.7063 56.2933 36.567L56.9115 33.4547C56.9199 33.4175 56.9387 33.3834 56.9657 33.3563C57.0027 33.3236 57.0471 33.3004 57.0951 33.2888C57.1702 33.2692 57.2467 33.2559 57.324 33.249C57.4125 33.2402 57.5264 33.2358 57.6658 33.2358C57.8051 33.2358 57.9191 33.2402 58.0075 33.249C58.0769 33.2553 58.1455 33.2687 58.2121 33.2888C58.2519 33.2989 58.2868 33.3228 58.3106 33.3563C58.3276 33.3861 58.3328 33.4213 58.3249 33.4547L57.7277 36.4719C57.7088 36.5569 57.6948 36.6429 57.6857 36.7296C57.6768 36.8202 57.6713 36.9065 57.6713 36.9895C57.6708 37.0716 57.6793 37.1536 57.6968 37.2339C57.7115 37.3013 57.7393 37.3652 57.7786 37.4219C57.8146 37.474 57.8644 37.515 57.9224 37.5402C57.9891 37.5685 58.0612 37.582 58.1336 37.5801C58.3046 37.5749 58.4709 37.5233 58.6147 37.4307C58.7941 37.3202 58.9547 37.1817 59.0903 37.0204C59.2497 36.8317 59.3846 36.6236 59.4918 36.4011C59.6133 36.1553 59.7032 35.8952 59.7594 35.6269L60.1874 33.4547C60.1912 33.4167 60.2094 33.3815 60.2383 33.3563C60.2767 33.3238 60.3221 33.3007 60.371 33.2888C60.4457 33.2692 60.5219 33.2559 60.5988 33.249C60.6917 33.2358 60.8034 33.2358 60.9417 33.2358C61.0799 33.2358 61.1939 33.2402 61.2812 33.249C61.352 33.2555 61.422 33.2688 61.4903 33.2888C61.5302 33.2986 61.5652 33.3226 61.5887 33.3563ZM55.508 33.3618C55.5258 33.3918 55.531 33.4276 55.5224 33.4614L54.5071 38.4836C54.4994 38.5214 54.4801 38.5558 54.4518 38.5821C54.4133 38.6151 54.368 38.6392 54.3191 38.6528C54.247 38.6743 54.1729 38.6884 54.0979 38.6949C53.9825 38.7057 53.8666 38.7105 53.7506 38.7093C53.6396 38.7117 53.5284 38.7084 53.4177 38.6993C53.3469 38.6943 53.277 38.6801 53.2098 38.6573C53.1701 38.6451 53.1355 38.6202 53.1114 38.5865C53.103 38.5717 53.0978 38.5552 53.0963 38.5382C53.0948 38.5213 53.0969 38.5041 53.1025 38.4881L53.5007 36.5128H51.5099L51.1173 38.4881C51.1095 38.5256 51.0907 38.5599 51.0631 38.5865C51.0263 38.6202 50.9819 38.6445 50.9337 38.6573C50.8595 38.6794 50.7831 38.6935 50.7059 38.6993C50.5919 38.71 50.4775 38.7148 50.363 38.7137C50.2493 38.715 50.1356 38.7102 50.0224 38.6993C49.9516 38.694 49.8817 38.6799 49.8144 38.6573C49.7739 38.6463 49.7386 38.6212 49.7149 38.5865C49.7005 38.5558 49.6966 38.5212 49.7038 38.4881L50.7125 33.4614C50.72 33.4237 50.7385 33.3891 50.7656 33.3618C50.8028 33.3289 50.8471 33.3051 50.895 33.2922C50.967 33.2702 51.0412 33.2557 51.1162 33.249C51.208 33.2358 51.3241 33.2358 51.4624 33.2358C51.6006 33.2358 51.7145 33.2402 51.803 33.249C51.8738 33.2548 51.9436 33.2693 52.0109 33.2922C52.0511 33.3027 52.0861 33.3275 52.1094 33.3618C52.1245 33.3927 52.1284 33.4279 52.1204 33.4614L51.7433 35.3415H53.734L54.1101 33.4614C54.1172 33.424 54.1349 33.3895 54.1609 33.3618C54.1963 33.3283 54.2397 33.3043 54.287 33.2922C54.3612 33.2698 54.4376 33.2554 54.5149 33.249C54.6089 33.2358 54.7206 33.2358 54.8588 33.2358C54.9971 33.2358 55.111 33.2402 55.1983 33.249C55.2695 33.2547 55.3397 33.2692 55.4074 33.2922C55.4479 33.3031 55.4835 33.3277 55.508 33.3618ZM49.0546 33.2358C49.221 33.2279 49.3877 33.2428 49.5501 33.28L49.5512 33.2833C49.589 33.2911 49.623 33.3116 49.6475 33.3414C49.6721 33.3712 49.6857 33.4084 49.6862 33.447C49.6855 33.502 49.68 33.5567 49.6696 33.6107C49.6568 33.6733 49.6398 33.7351 49.6187 33.7954C49.4911 34.1397 49.3533 34.4962 49.2051 34.8649C49.0569 35.2335 48.8869 35.6125 48.6952 36.0018C48.5057 36.3882 48.2886 36.7915 48.0438 37.2118C47.799 37.632 47.5192 38.0634 47.2043 38.5058L45.8318 40.4534C45.7982 40.5019 45.7549 40.543 45.7046 40.5739C45.6451 40.6098 45.5807 40.6366 45.5133 40.6536C45.4221 40.6764 45.3293 40.6923 45.2357 40.7011C45.1262 40.7122 45.0012 40.7177 44.8586 40.7177C44.7278 40.7191 44.5971 40.7128 44.467 40.6989C44.3895 40.6929 44.3142 40.6707 44.2458 40.6337C44.2264 40.6226 44.2104 40.6065 44.1995 40.587C44.1886 40.5675 44.1832 40.5454 44.1839 40.5231C44.1944 40.4623 44.2216 40.4056 44.2624 40.3594L45.5398 38.6772L44.7126 33.8485C44.7078 33.8194 44.7035 33.7888 44.6991 33.7574C44.6963 33.7374 44.6935 33.7172 44.6904 33.697C44.6835 33.6523 44.6798 33.6072 44.6794 33.562C44.6767 33.5052 44.6893 33.4486 44.7159 33.3983C44.745 33.3533 44.7887 33.3197 44.8398 33.3032C44.915 33.2766 44.9935 33.2602 45.0731 33.2546C45.1704 33.2413 45.2744 33.2413 45.4281 33.2413C45.5156 33.2413 45.5922 33.2438 45.6584 33.246C45.7086 33.2476 45.7527 33.249 45.7909 33.249C45.8588 33.2506 45.9259 33.263 45.99 33.2855C46.031 33.3005 46.0644 33.3311 46.0829 33.3707C46.1015 33.4156 46.1137 33.4629 46.1194 33.5112L46.6414 37.026H46.6525C46.8394 36.7439 47.0108 36.4641 47.1645 36.171C47.3183 35.8779 47.4554 35.5838 47.5859 35.2862C47.7164 34.9887 47.827 34.6868 47.9376 34.3805C48.0452 34.0752 48.1437 33.7666 48.2329 33.4547C48.2405 33.4179 48.2581 33.3839 48.2838 33.3563C48.3213 33.3225 48.3671 33.2992 48.4165 33.2888C48.4968 33.2692 48.5785 33.2559 48.6609 33.249C48.7627 33.2358 48.8932 33.2358 49.0546 33.2358Z" fill="#E31E24"/>
</svg>
