<svg width="24" height="24" viewBox="0 0 24 24" fill="none" xmlns="http://www.w3.org/2000/svg">
<path d="M12.0031 23.9937C5.37746 23.9937 0.00627899 18.6225 0.00627899 11.9969C0.00627899 5.37118 5.37746 0 12.0031 0C18.6288 0 24 5.37118 24 11.9969C24 18.6225 18.6288 23.9937 12.0031 23.9937Z" fill="#F7931E"/>
<path d="M12.0158 3.42944C14.4403 3.42944 16.4062 5.39542 16.4062 7.81992C16.4062 10.2444 14.4403 12.2104 12.0158 12.2104C9.59128 12.2104 7.6253 10.2444 7.6253 7.81992C7.6253 5.38914 9.59128 3.42944 12.0158 3.42944ZM12.0158 9.62887C13.0207 9.62887 13.831 8.81861 13.831 7.81364C13.831 6.80866 13.0207 5.9984 12.0158 5.9984C11.0108 5.9984 10.2005 6.80866 10.2005 7.81364C10.2005 8.81861 11.0108 9.62887 12.0158 9.62887Z" fill="white"/>
<path d="M10.4643 15.6964C8.70562 15.3384 7.65668 14.5093 7.60015 14.459C7.0851 14.0445 7.00345 13.297 7.418 12.782C7.83255 12.267 8.58 12.1853 9.09505 12.5998C9.10761 12.6061 10.2319 13.4729 12.0786 13.4729C13.9252 13.4729 15.0746 12.6124 15.0809 12.5998C15.596 12.1853 16.3434 12.2732 16.758 12.782C17.1725 13.297 17.0846 14.0445 16.5758 14.459C16.5193 14.503 15.4201 15.3572 13.6174 15.709L16.1299 18.3408C16.5884 18.8181 16.5758 19.5718 16.0985 20.0304C15.8661 20.2565 15.5708 20.3633 15.2693 20.3633C14.9553 20.3633 14.6412 20.2439 14.4088 19.999L12.0723 17.5054L9.49704 20.0115C9.03224 20.4763 8.27223 20.4763 7.80743 20.0115C7.34263 19.5467 7.34263 18.7867 7.80743 18.3219L10.4643 15.6964Z" fill="white"/>
</svg>
