<svg width="16" height="13" viewBox="0 0 16 13" fill="none" xmlns="http://www.w3.org/2000/svg">
<path d="M14.9996 9.733V11.69C15.0003 11.8717 14.963 12.0515 14.8901 12.218C14.8172 12.3845 14.7102 12.5339 14.5761 12.6567C14.442 12.7795 14.2836 12.873 14.1111 12.9312C13.9387 12.9894 13.756 13.0111 13.5747 12.9947C11.5633 12.7766 9.63128 12.0907 7.93379 10.992C6.35449 9.99045 5.01552 8.65414 4.01197 7.07797C2.90731 5.37614 2.21986 3.43855 2.00531 1.42217C1.98897 1.24177 2.01045 1.05996 2.06838 0.888307C2.12631 0.716653 2.21942 0.558917 2.34178 0.425143C2.46413 0.291368 2.61306 0.184486 2.77907 0.111302C2.94509 0.0381173 3.12455 0.00023382 3.30604 6.3246e-05H5.26695C5.58417 -0.00305263 5.89169 0.109056 6.13221 0.315492C6.37273 0.521928 6.52983 0.808606 6.57422 1.12209C6.65699 1.74838 6.81048 2.36332 7.03177 2.95517C7.11971 3.18866 7.13874 3.44241 7.08661 3.68637C7.03448 3.93032 6.91337 4.15425 6.73763 4.33161L5.90751 5.16008C6.838 6.79325 8.19292 8.14549 9.82933 9.07413L10.6595 8.24566C10.8372 8.07027 11.0615 7.9494 11.306 7.89737C11.5504 7.84534 11.8047 7.86434 12.0386 7.95211C12.6316 8.17296 13.2478 8.32614 13.8753 8.40874C14.1929 8.45345 14.4828 8.61306 14.6901 8.85723C14.8974 9.10139 15.0076 9.41307 14.9996 9.733Z" fill="#FFDD67"/>
</svg>
