<svg width="34" height="34" viewBox="0 0 34 34" fill="none" xmlns="http://www.w3.org/2000/svg">
<path d="M0.0173506 17.3506C0.00777108 8.23112 7.39787 0.833252 16.5173 0.833252H17.0938C26.1997 0.833252 33.5842 8.21 33.5938 17.3159C33.6033 26.4354 26.2132 33.8333 17.0938 33.8333H16.5174C7.41143 33.8333 0.0269159 26.4565 0.0173506 17.3506Z" fill="white"/>
<path d="M21.4529 10.5364C25.762 12.8734 27.3606 18.261 25.0237 22.57C22.6868 26.879 17.2991 28.4777 12.9901 26.1408C8.68111 23.8038 7.08243 18.4162 9.41937 14.1072C10.8566 11.4571 13.4478 9.83211 16.2323 9.51739M16.2323 9.51739L10.9348 7.94709M16.2323 9.51739L13.8079 14.9257" stroke="#B99E4C" stroke-width="2" stroke-linecap="round" stroke-linejoin="round"/>
</svg>
