<svg width="11" height="29" viewBox="0 0 11 29" fill="none" xmlns="http://www.w3.org/2000/svg">
<path d="M6.01259 20.1144H4.98741C2.23048 20.1144 0 17.9337 0 15.2382V4.87623C0 2.18076 2.23048 0 4.98741 0H6.01259C8.76952 0 11 2.18076 11 4.87623V15.2382C11 17.9201 8.75567 20.1144 6.01259 20.1144ZM4.98741 0.541803C2.54912 0.541803 0.554156 2.49229 0.554156 4.87623V15.2382C0.554156 17.6221 2.54912 19.5726 4.98741 19.5726H6.01259C8.45088 19.5726 10.4458 17.6221 10.4458 15.2382V4.87623C10.4458 2.49229 8.45088 0.541803 6.01259 0.541803H4.98741Z" fill="white"/>
<path d="M5.48631 9.07521C4.9183 9.07521 4.44727 8.61467 4.44727 8.05933V4.40216C4.44727 3.84681 4.9183 3.38628 5.48631 3.38628C6.05432 3.38628 6.52535 3.84681 6.52535 4.40216V8.05933C6.52535 8.61467 6.06817 9.07521 5.48631 9.07521ZM5.48631 3.92808C5.22308 3.92808 5.00142 4.1448 5.00142 4.40216V8.05933C5.00142 8.31668 5.22308 8.5334 5.48631 8.5334C5.74953 8.5334 5.9712 8.31668 5.9712 8.05933V4.40216C5.9712 4.1448 5.76339 3.92808 5.48631 3.92808Z" fill="white"/>
<path d="M5.49999 25.7763C5.43072 25.7763 5.36145 25.7492 5.30603 25.695L1.49621 22.0785C1.38538 21.9701 1.38538 21.8076 1.49621 21.6992C1.60704 21.5908 1.77329 21.5908 1.88412 21.6992L5.49999 25.1397L9.17127 21.6992C9.2821 21.5908 9.4622 21.6044 9.55918 21.7128C9.67001 21.8211 9.65616 21.9972 9.54533 22.092L5.68009 25.7085C5.63853 25.7492 5.56926 25.7763 5.49999 25.7763Z" fill="white"/>
<path d="M5.4998 29C5.43054 29 5.36127 28.9729 5.30585 28.9187L1.50988 25.2887C1.39905 25.1803 1.39905 25.0178 1.50988 24.9094C1.62071 24.801 1.78696 24.801 1.89779 24.9094L5.51366 28.3498L9.18494 24.9094C9.29577 24.801 9.47587 24.8146 9.57285 24.9229C9.68368 25.0313 9.66983 25.2074 9.559 25.3022L5.67991 28.9187C5.63834 28.9729 5.56907 29 5.4998 29Z" fill="white"/>
</svg>
