<svg width="24" height="24" viewBox="0 0 24 24" fill="none" xmlns="http://www.w3.org/2000/svg">
<path d="M12 24C18.6274 24 24 18.6274 24 12C24 5.37258 18.6274 0 12 0C5.37258 0 0 5.37258 0 12C0 18.6274 5.37258 24 12 24Z" fill="#2787F5"/>
<path d="M6.4999 7.5H4.7499C4.2499 7.5 4.1499 7.75 4.1499 8C4.1499 8.45 4.7499 10.75 6.8999 13.8C8.3499 15.9 10.3999 17 12.2499 17C13.3499 17 13.4999 16.75 13.4999 16.3V14.75C13.4999 14.25 13.5999 14.15 13.9499 14.15C14.1999 14.15 14.6499 14.3 15.6999 15.3C16.8999 16.5 17.0999 17 17.7499 17H19.4999C19.9999 17 20.2499 16.75 20.0999 16.25C19.9499 15.75 19.3999 15.05 18.5999 14.2C18.1999 13.7 17.5999 13.2 17.3999 12.95C17.1499 12.6 17.1999 12.45 17.3999 12.15C17.3999 12.15 19.5499 9.15 19.7499 8.15C19.8499 7.8 19.7499 7.5 19.1999 7.5H17.4999C17.0499 7.5 16.8499 7.75 16.7499 8C16.7499 8 15.8499 10.15 14.5999 11.6C14.1999 12 13.9999 12.15 13.7999 12.15C13.6999 12.15 13.5499 12 13.5499 11.65V8.2C13.5499 7.75 13.3999 7.55 13.0499 7.55H10.2999C9.9999 7.55 9.8499 7.75 9.8499 7.95C9.8499 8.35 10.4999 8.45 10.5499 9.65V12.25C10.5499 12.8 10.4499 12.9 10.2499 12.9C9.6499 12.9 8.1999 10.7 7.3499 8.25C7.0999 7.7 6.9499 7.5 6.4999 7.5Z" fill="white"/>
</svg>
